<svg xmlns="http://www.w3.org/2000/svg" width="69" height="11"><path fill="#edb509" d="M62.53-.005l1.89 3.572 4.107.629-2.94 2.835.65 3.96-3.706-1.82-3.706 1.82.65-3.96-2.94-2.835 4.107-.629zm-14 0l1.89 3.572 4.107.629-2.94 2.835.65 3.96-3.706-1.82-3.706 1.82.65-3.96-2.94-2.835 4.107-.629zm-14 0l1.89 3.572 4.107.629-2.94 2.835.65 3.96-3.706-1.82-3.706 1.82.65-3.96-2.94-2.835 4.107-.629zm-14 0l1.89 3.572 4.107.629-2.94 2.835.65 3.96-3.706-1.82-3.706 1.82.65-3.96-2.94-2.835 4.107-.629zm-14 0l1.89 3.572 4.107.629-2.94 2.835.65 3.96L6.53 9.17l-3.706 1.82.65-3.96-2.94-2.835 4.107-.629z"/></svg>