<svg xmlns="http://www.w3.org/2000/svg" width="35" height="35"><path fill="#fff" d="M16.67 24.9h8.281v10.095h-5.046a19.778 19.778 0 01-14.075-5.83A19.778 19.778 0 010 15.09v-5.048h10.093v8.282l-2.724.75a13.16 13.16 0 003.24 5.311 13.17 13.17 0 005.31 3.24zm.691 5.213l-.962-.228a15.182 15.182 0 01-7.24-4.05 15.192 15.192 0 01-4.05-7.24l-.228-.962 3.161-.872v-4.667H2.051v2.996c0 4.768 1.857 9.252 5.229 12.624a17.74 17.74 0 0012.625 5.23H22.9V26.95h-4.668zM35 17.494c0 4.675-1.82 9.069-5.126 12.375l-1.45-1.451a15.345 15.345 0 004.525-10.924c0-4.126-1.607-8.006-4.525-10.924A15.35 15.35 0 0017.5 2.045 15.35 15.35 0 006.576 6.57l-1.45-1.45A17.386 17.386 0 0117.5-.006c4.674 0 9.069 1.82 12.374 5.126A17.387 17.387 0 0135 17.494zm-19.117-1.976v2.053h4.106v2.05h-6.157v-6.155h4.105v-2.054h-4.106V9.361h6.157v6.157zM26.147 9.36h2.051v10.262h-2.05v-4.105h-4.106V9.36h2.051v4.105h2.054z"/></svg>