<svg xmlns="http://www.w3.org/2000/svg" width="105" height="20"><defs><linearGradient id="a" x1="10.52" x2="10.54" y1="20.01" y2="-.01" gradientUnits="userSpaceOnUse"><stop offset="0" stop-color="#ffd26f"/><stop offset=".48" stop-color="#ffd26f"/><stop offset=".51" stop-color="#f7cb6b"/><stop offset="1" stop-color="#f7cb6b"/></linearGradient><linearGradient id="b" x1="31.52" x2="31.54" y1="20.01" y2="-.01" gradientUnits="userSpaceOnUse"><stop offset="0" stop-color="#ffd26f"/><stop offset=".48" stop-color="#ffd26f"/><stop offset=".51" stop-color="#f7cb6b"/><stop offset="1" stop-color="#f7cb6b"/></linearGradient><linearGradient id="c" x1="52.52" x2="52.54" y1="20.01" y2="-.01" gradientUnits="userSpaceOnUse"><stop offset="0" stop-color="#ffd26f"/><stop offset=".48" stop-color="#ffd26f"/><stop offset=".51" stop-color="#f7cb6b"/><stop offset="1" stop-color="#f7cb6b"/></linearGradient><linearGradient id="d" x1="73.52" x2="73.54" y1="20.01" y2="-.01" gradientUnits="userSpaceOnUse"><stop offset="0" stop-color="#ffd26f"/><stop offset=".48" stop-color="#ffd26f"/><stop offset=".51" stop-color="#f7cb6b"/><stop offset="1" stop-color="#f7cb6b"/></linearGradient><clipPath id="e"><path fill="#fff" d="M94.53-.01l3.148 6.503 6.846 1.144-4.9 5.16 1.083 7.21-6.177-3.313-6.176 3.313 1.083-7.21-4.9-5.16 6.846-1.144z"/></clipPath></defs><path fill="#edb509" d="M10.53-.01l3.148 6.503 6.846 1.144-4.9 5.16 1.083 7.21-6.177-3.313-6.176 3.313 1.083-7.21-4.9-5.16 6.846-1.144z"/><path fill="url(#a)" d="M10.53-.01l3.148 6.503 6.846 1.144-4.9 5.16 1.083 7.21-6.177-3.313-6.176 3.313 1.083-7.21-4.9-5.16 6.846-1.144z"/><path fill="#edb509" d="M31.53-.01l3.148 6.503 6.846 1.144-4.9 5.16 1.083 7.21-6.177-3.313-6.176 3.313 1.083-7.21-4.9-5.16 6.846-1.144z"/><path fill="url(#b)" d="M31.53-.01l3.148 6.503 6.846 1.144-4.9 5.16 1.083 7.21-6.177-3.313-6.176 3.313 1.083-7.21-4.9-5.16 6.846-1.144z"/><path fill="#edb509" d="M52.53-.01l3.148 6.503 6.846 1.144-4.9 5.16 1.083 7.21-6.177-3.313-6.176 3.313 1.083-7.21-4.9-5.16 6.846-1.144z"/><path fill="url(#c)" d="M52.53-.01l3.148 6.503 6.846 1.144-4.9 5.16 1.083 7.21-6.177-3.313-6.176 3.313 1.083-7.21-4.9-5.16 6.846-1.144z"/><path fill="#edb509" d="M73.53-.01l3.148 6.503 6.846 1.144-4.9 5.16 1.083 7.21-6.176-3.313-6.177 3.313 1.083-7.21-4.9-5.16 6.846-1.144z"/><path fill="url(#d)" d="M73.53-.01l3.148 6.503 6.846 1.144-4.9 5.16 1.083 7.21-6.176-3.313-6.177 3.313 1.083-7.21-4.9-5.16 6.846-1.144z"/><path fill="#ddd" d="M94.53-.01l3.148 6.503 6.846 1.144-4.9 5.16 1.083 7.21-6.177-3.313-6.176 3.313 1.083-7.21-4.9-5.16 6.846-1.144z"/><path fill="none" stroke="#ddd" stroke-linecap="round" stroke-linejoin="round" stroke-miterlimit="20" stroke-width="2" d="M94.53-.01v0l3.148 6.503v0l6.846 1.144v0l-4.9 5.16v0l1.083 7.21v0l-6.177-3.313v0l-6.176 3.313v0l1.083-7.21v0l-4.9-5.16v0l6.846-1.144v0z" clip-path="url(&quot;#e&quot;)"/></svg>