<svg xmlns="http://www.w3.org/2000/svg" width="53" height="53"><path fill="#013e64" d="M29.812 5.422L31.603-.01h15.328L43.94 8.056h2.756c1.765 0 3.21 1.46 3.21 3.245 0 1.517-1.072 2.851-2.536 3.17h-5.81l-1.047 2.822h12.126l-3.501 4.326H53c0 4.033-.392 8.678-1.3 10.201v4.475c0 1.231-1 2.24-2.217 2.24h-8.71c-1.217 0-2.217-1.01-2.217-2.24v-1.604L23.738 52.998l5.582-18.806H14.444v2.103c0 1.23-1 2.24-2.216 2.24H3.516c-1.215 0-2.215-1.008-2.215-2.24V31.82C.39 30.297 0 25.652 0 21.62h13.435l1.542 2.163H2.178c.094 2.024.41 6.723 1.48 7.528.68.512 1.9.632 2.714.685 1.736.114 3.548.05 5.307.034 4.15-2.717 4.325-6.491 10.292-6.491h9.058c.298 0 .58.01.851.027l.53-1.783H17.116l-1.422-2.163h8.776l2.357-7.147H5.63A3.249 3.249 0 013.095 11.3c0-1.777 1.452-3.245 3.21-3.245h4.218c1.14 0 2.145.608 2.715 1.519l.51-.673c1.152-1.519 3.403-3.48 7.088-3.48zm3.333-3.269L26.726 21.62h8.56l-6.42 21.629 19.257-23.792H37.425l6.419-17.303zm7.783 29.607c.127.09.258.181.393.27 1.759.015 3.57.079 5.306-.035.815-.053 2.034-.173 2.715-.685 1.07-.805 1.386-5.504 1.48-7.528h-3.436zm-9.682-4.056a11.163 11.163 0 00-.217-.003H21.97c-3.886 0-4.76 2.864-6.632 4.328h14.623zM29.099 7.585h-8.263c-2.171 0-4.067.89-5.39 2.633l-1.641 2.164h13.712zm13.239 4.787c.045.006.092.01.139.01h4.218a1.08 1.08 0 001.07-1.081c0-.592-.485-1.082-1.07-1.082h-3.558zm-1.642 21.82v2.022c0 .075.04.158.076.158h8.711c.037 0 .077-.082.077-.158v-2.588c-1.843.722-4.52.581-8.239.565zM5.235 11.3c0 .59.484 1.081 1.07 1.081h4.218a1.08 1.08 0 001.07-1.081c0-.592-.485-1.082-1.07-1.082H6.305a1.08 1.08 0 00-1.07 1.082zm6.444 22.89c-3.72.016-6.396.157-8.239-.565v2.588c0 .076.04.158.076.158h8.712c.036 0 .076-.083.076-.158v-2.022z"/></svg>