<svg xmlns="http://www.w3.org/2000/svg" width="32" height="37"><path fill="#fff" d="M27.262 20.663c0 6.615-5.18 11.995-11.545 11.995S4.173 27.278 4.173 20.663c0-6.613 5.179-11.993 11.544-11.993 6.366 0 11.545 5.38 11.545 11.993zm-2.087 0c0-5.418-4.243-9.825-9.458-9.825-5.214 0-9.457 4.407-9.457 9.825 0 5.42 4.243 9.827 9.457 9.827 5.215 0 9.458-4.408 9.458-9.827zm3.652-9.017c1.697 2.651 2.608 5.76 2.608 9.017 0 4.363-1.635 8.464-4.603 11.549-2.97 3.084-6.916 4.782-11.115 4.782-4.198 0-8.145-1.698-11.114-4.782C1.634 29.127 0 25.026 0 20.663c0-4.36 1.635-8.462 4.603-11.546 1.957-2.033 4.34-3.465 6.939-4.203V2.162h-2.09V-.006h12.53v2.168h-2.088v2.752c1.6.455 3.117 1.172 4.503 2.13l3.174-3.297L32 8.348zm-2.76-3.272a16.216 16.216 0 011.479 1.536l1.503-1.562-1.478-1.535zM13.629 2.162v2.315a15.343 15.343 0 014.179 0V2.162zm15.72 18.501c0-7.808-6.114-14.161-13.63-14.161-7.517 0-13.632 6.353-13.632 14.161 0 7.81 6.115 14.163 13.631 14.163 7.517 0 13.632-6.353 13.632-14.163zM16.762 19.58h4.236v2.17h-6.323v-8.741h2.087z"/></svg>