<svg xmlns="http://www.w3.org/2000/svg" width="30" height="30"><path fill="#fff" d="M29.972 7.808l-2.028 9.195a4.711 4.711 0 01-1.633 2.643 4.683 4.683 0 01-2.932 1.036 1.172 1.172 0 010-2.345 2.323 2.323 0 002.276-1.838l2.028-9.195a1.172 1.172 0 112.29.504zm-3.136 18.733a3.461 3.461 0 01-3.457 3.456 3.461 3.461 0 01-3.272-4.57h-5.058a3.461 3.461 0 01-3.272 4.57 3.461 3.461 0 01-3.457-3.456c0-.392.066-.764.185-1.114h-.478a3.52 3.52 0 01-3.515-3.516l.001-.03-.001-.029c0-1.422.85-2.648 2.067-3.202L5.186 5.853A4.06 4.06 0 001.172 2.34a1.172 1.172 0 010-2.345 6.413 6.413 0 016.34 5.564l.003.026 1.388 12.751h8.616a1.172 1.172 0 110 2.345H8.027c-.646 0-1.172.524-1.172 1.17l-.001.029.001.03c0 .647.526 1.172 1.172 1.172H23.38a3.46 3.46 0 013.457 3.458zm-13.946 0a1.114 1.114 0 00-2.226 0c0 .612.5 1.112 1.113 1.112.614 0 1.113-.5 1.113-1.112zm11.602 0a1.114 1.114 0 00-2.227 0 1.115 1.115 0 002.227 0z"/></svg>