<svg xmlns="http://www.w3.org/2000/svg" width="36" height="54"><path fill="#013e64" d="M11.225 7.668V2.815a.427.427 0 00-.419-.422H6.161a.427.427 0 00-.419.422v4.853zm9.154 31.966c0 3.966-3.197 7.183-7.137 7.183-3.94 0-7.138-3.217-7.138-7.183 0-3.772 3.077-8.065 5.222-10.996l1.916-2.619 1.916 2.619c2.144 2.931 5.221 7.224 5.221 10.996zm-7.137 2.394v-7.815c1.2 1.838 2.379 3.982 2.379 5.42a2.386 2.386 0 01-2.38 2.395zm0-11.97c-2.628 3.591-4.758 6.932-4.758 9.576 0 2.645 2.13 4.788 4.758 4.788 2.627 0 4.758-2.143 4.758-4.788 0-2.644-2.13-5.985-4.758-9.577zm3.93-22.39c3.364 0 6.03 1.688 7.766 4.52l8.375 13.662c2.365 3.86 2.686 5.414 2.686 9.91v12.463c0 3.179-2.581 5.777-5.741 5.777H5.742c-3.162 0-5.74-2.595-5.74-5.777V13.445a5.794 5.794 0 013.36-5.255V2.815C3.363 1.267 4.622 0 6.161 0h4.645c1.539 0 2.798 1.267 2.798 2.815v4.853zm12.091 20.697c1.027 1.678.972 3.872-.714 5.104-1.84 1.344-4.231.5-5.36-1.333-2.292-3.74-4.587-7.481-6.88-11.224-.952-1.563-.938-3.562.517-4.818 1.885-1.627 4.536-.733 5.7 1.28l6.737 10.991zM20.481 18.6c-1.009-1.796-3.272-.79-2.145 1.06l6.877 11.22c1.05 1.704 3.178.626 2.025-1.258L20.48 18.6zM5.742 10.063c-1.849 0-3.361 1.522-3.361 3.382v34.778c0 1.86 1.513 3.382 3.361 3.382h24.516c1.847 0 3.362-1.524 3.362-3.382V35.76c0-4.127-.186-5.152-2.332-8.653l-8.374-13.663c-.969-1.58-2.703-3.382-5.741-3.382z"/></svg>