<svg xmlns="http://www.w3.org/2000/svg" xmlns:xlink="http://www.w3.org/1999/xlink" viewBox="0 0 382 384"><defs><path id="a" d="M0 0h382v384H0z"/></defs><clipPath id="b"><use xlink:href="#a" overflow="visible"/></clipPath><path d="M378.3 282.4l-24.5-74.8c-5.9-18.3-20.5-22.4-34.6-26.5-1.9-.5-3.9-1.1-5.8-1.7l-16.4-5c-.2-.1-.4-.1-.6-.2l-14.8-4.5c15.9-14.5 26.9-34.6 26.9-52.5v-12.9c5-1.9 8.6-6.7 8.6-12.3V77.9c0-6-4-11-9.5-12.6-4.8-22.8-20.4-41.7-41.8-51l.5-1.9c.7-2.8 0-5.7-1.8-8-2.1-2.7-5.6-4.4-9.1-4.4h-36.3c-3.5 0-7 1.7-9.1 4.4-1.8 2.3-2.5 5.3-1.8 8l.5 1.9c-21.4 9.2-37 28.2-41.8 51-5.5 1.6-9.5 6.7-9.5 12.6v14.2c0 5.6 3.5 10.3 8.3 12.3l.3 13.1c0 17.9 11 37.9 26.9 52.4l-14.8 4.5c-.2 0-.4.1-.6.2l-16.5 5c-1.9.6-3.9 1.1-5.8 1.7-14.1 4-28.7 8.2-34.6 26.4l-17.9 54.7-7.8-6.4c4.4-17.6-1.6-36.4-15.8-48-12-9.9-28.2-13.1-43.2-8.7-2.3.7-9.5 2.8-10.5 8.9-1 6 4.8 10.1 7.2 11.9.2.1 19.8 16.1 19.8 16.1 4.3 3.5 5.2 9.8 2.2 14.4-3.9 3.9-10.3 4.2-14.6.7 0 0-19.5-16-19.7-16.1-2.2-2.1-7.3-7-13.1-4.8-5.9 2.2-6.5 9.6-6.7 12-1.4 15.6 5 30.8 17 40.6 14.1 11.6 33.9 13.8 50.2 6l11.1 9.1c2.4 2 5.9 1.6 7.9-.8 2-2.4 1.6-5.9-.8-7.9l-14-11.5c-1.8-1.5-4.4-1.7-6.4-.5-12.9 7.6-29.4 6.3-40.9-3.2-9.1-7.5-14-19-12.9-30.9 0-.3.1-.5.1-.7.3.3 1.5 1.4 1.8 1.6L32.9 260c9 7.3 22.2 6.5 30.2-2 .2-.2.3-.4.5-.6 6.7-9.5 5-22.6-4-30l-19.3-15.8c-.3-.3-1.6-1.2-2-1.4.2-.1.5-.1.7-.2 11.5-3.3 23.8-.9 32.9 6.6 11.5 9.4 16 25.3 11.1 39.4-.8 2.2-.1 4.7 1.8 6.2l50.4 41.3c1.8 1.5 4.4 1.7 6.4.5 13-7.6 29.4-6.3 40.9 3.2 9.1 7.5 14 19 12.9 30.9 0 .3-.1.5-.1.7-.3-.3-1.5-1.4-1.8-1.6l-19.3-15.8c-9-7.3-22.2-6.5-30.2 1.9-.2.2-.3.4-.5.6-6.7 9.4-5 22.6 4 30l19.2 15.8c.3.3 1.6 1.2 2 1.4-.2.1-.4.1-.7.2-11.5 3.4-23.8.9-32.9-6.6-11.5-9.5-16-25.3-11.1-39.4.8-2.2.1-4.7-1.8-6.2L106 305.9c-2.4-2-6-1.6-7.9.8s-1.6 6 .8 7.9l13.3 10.7c-4.4 17.5 1.6 36.4 15.8 48 8.5 7 19.1 10.6 29.8 10.6 4.5 0 9-.6 13.4-1.9 2.3-.7 9.4-2.8 10.5-8.9 1-6-4.8-10.1-7.3-11.9-.2-.1-19.8-16.1-19.8-16.1-4.3-3.5-5.2-9.8-2.2-14.4 3.9-3.9 10.3-4.2 14.6-.7 0 0 19.5 16 19.7 16.1 2.2 2.1 7.3 7 13.1 4.8 5.9-2.2 6.5-9.6 6.7-12 1-11.4-2.2-22.7-8.7-31.7h169.1c6.3 0 10.5-.4 13.3-4.1 3.2-4.4 1.4-10.4-1.9-20.7m-92.7-99.6l-18.1 24c-1.9 2.5-3.4 2.7-4.4 2.6-.5 0-1.1-.2-1.6-.4-1.6-.6-2.9-1.8-3.3-2.4l-7.7-19c1.6-.5 3.2-1 4.9-1.6 5.3-2 10.4-4.6 15.3-7.8l14.9 4.6zM254.8 11.3L249 35h-23.8l-4.5-18.4c0-.1-.1-.3-.1-.4l-1.2-5h35.4zM170.3 94c-1 0-1.9-.9-1.9-1.9V77.9c0-1 .9-1.9 1.9-1.9h52.8c3.1 0 5.6-2.5 5.6-5.6 0-3.1-2.5-5.6-5.6-5.6h-44.8c4.6-17.3 16.6-31.7 32.9-39.3l3.7 14.9c1 4 4 6 9 6h25.7c5.3.1 8.6-1.8 9.6-6l3.7-14.9c16.3 7.6 28.3 22 32.9 39.3h-47.4c-3.1 0-5.6 2.5-5.6 5.6 0 3.1 2.5 5.6 5.6 5.6h55.4c1 0 1.9.9 1.9 1.9v14.2c0 1-.9 1.9-1.9 1.9H170.3zm6.7 23.3v-.1l-.3-12h120.4v12.1c0 22-21.3 49.2-45.7 58.2-7.2 2.7-13 3.5-19.3 2.6h-.3c-2.9-.5-5.9-1.3-9.3-2.6-24.2-9-45.5-36.2-45.5-58.2m26.4 60.9c4.8 3.2 9.9 5.9 15.2 7.8 1.7.6 3.4 1.2 5 1.7l-7.7 19c-.5.8-2.7 2.6-4.9 2.8-1 .1-2.5-.1-4.4-2.6l-18.1-24.1 14.9-4.6zm9.8 117.9h-26.9c-7.6-5.2-16.4-8-25.4-8.2v-16.4c0-3.1-2.5-5.6-5.6-5.6-3.1 0-5.6 2.5-5.6 5.6v17.4c-3.6.8-7.1 1.9-10.5 3.5l-27.4-22.5 19.3-58.8c4.1-12.6 13.7-15.3 27-19.1 1.9-.6 3.9-1.1 6-1.7l13-4 20.6 27.4c3.5 4.6 8.1 7.1 13.1 7.1.5 0 1.1 0 1.6-.1l10.2 13.2-9.4 62.2zm11.3 0l8.7-58.2h7.6l8.7 58.2h-25zm18.4-69.4h-11.7l-8.4-10.9c1.6-1.5 2.9-3.2 3.5-4.7l8.7-21.4c.7 0 1.4.1 2.1.1.7 0 1.4 0 2.1-.1l8.7 21.3c.6 1.6 1.9 3.2 3.5 4.7l-8.5 11zm84.2 69.4v-24.6c0-3.1-2.5-5.6-5.6-5.6-3.1 0-5.6 2.5-5.6 5.6v24.6H261l-9.3-62.3 10.2-13.2c.5.1 1.1.1 1.6.1 5 0 9.6-2.5 13.1-7.1l20.5-27.4 13 4c2 .6 4 1.2 6 1.7 13.3 3.8 22.9 6.5 27 19.1l24.5 74.8c.8 2.4 2.4 7.4 2.9 10.1-1.5.2-43.4.2-43.4.2" clip-path="url(#b)"/><defs><path id="c" d="M0 0h382v384H0z"/></defs><clipPath id="d"><use xlink:href="#c" overflow="visible"/></clipPath><path d="M213 133c3.1 0 5.6-2.5 5.6-5.6v-3.9c0-3.1-2.5-5.6-5.6-5.6-3.1 0-5.6 2.5-5.6 5.6v3.9c0 3.1 2.5 5.6 5.6 5.6m48.7 0c3.1 0 5.6-2.5 5.6-5.6v-3.9c0-3.1-2.5-5.6-5.6-5.6-3.1 0-5.6 2.5-5.6 5.6v3.9c-.1 3.1 2.5 5.6 5.6 5.6" clip-path="url(#d)"/></svg>