<svg version="1.1" id="Слой_1" xmlns="http://www.w3.org/2000/svg" xmlns:xlink="http://www.w3.org/1999/xlink" x="0" y="0" viewBox="0 0 384 321.8" xml:space="preserve"><style>.st0{clip-path:url(#SVGID_2_)}</style><defs><path id="SVGID_1_" d="M0 0h384v321.8H0z"/></defs><clipPath id="SVGID_2_"><use xlink:href="#SVGID_1_" overflow="visible"/></clipPath><path class="st0" d="M86.8 92.3h61.7c3.1 0 5.6-2.5 5.6-5.6 0-3.1-2.5-5.6-5.6-5.6h-60L102 40.4c.1-.4.3-.7.4-1h118.4c.1.2.2.5.3.9L234.6 81h-59.5c-3.1 0-5.6 2.5-5.6 5.6 0 3.1 2.5 5.6 5.6 5.6h61.3c3.3 0 6.6-1.7 8.5-4.4 1.7-2.3 2.1-5.2 1.3-7.8l-14.4-43.3c-2.3-7.2-6.6-8.7-9.8-8.7H101.2c-4.6 0-7.9 2.9-9.8 8.7L77 80.1c-.9 2.6-.4 5.5 1.3 7.8 1.9 2.7 5.2 4.4 8.5 4.4M219 124.9v13c0 6.9 5.7 12.6 12.6 12.6h34.3c7 0 12.6-5.7 12.6-12.6v-13c0-6.9-5.7-12.6-12.6-12.6h-34.3c-7 0-12.6 5.7-12.6 12.6m48.3 0v13c0 .7-.6 1.3-1.4 1.3h-34.3c-.7 0-1.4-.6-1.4-1.3v-13c0-.7.6-1.3 1.4-1.3h34.3c.7 0 1.4.6 1.4 1.3m-69.8-.2h-71.8c-3.1 0-5.6 2.5-5.6 5.6 0 3.1 2.5 5.6 5.6 5.6h71.8c3.1 0 5.6-2.5 5.6-5.6 0-3-2.5-5.6-5.6-5.6m-12.7 22.4h-46.4c-3.1 0-5.6 2.5-5.6 5.6 0 3.1 2.5 5.6 5.6 5.6h46.4c3.1 0 5.6-2.5 5.6-5.6 0-3.1-2.5-5.6-5.6-5.6M44.7 124.9v13c0 6.9 5.7 12.6 12.6 12.6h34.3c7 0 12.6-5.7 12.6-12.6v-13c0-6.9-5.7-12.6-12.6-12.6H57.3c-7 0-12.6 5.7-12.6 12.6m11.2 0c0-.7.6-1.3 1.4-1.3h34.3c.7 0 1.4.6 1.4 1.3v13c0 .7-.6 1.3-1.4 1.3H57.3c-.7 0-1.4-.6-1.4-1.3v-13z"/><path class="st0" d="M371.9 211.8h-3.2c-1.3-4-2.9-7.9-4.8-11.6l2.3-2.3c2.3-2.3 3.5-5.3 3.5-8.5s-1.3-6.3-3.5-8.6l-15.3-15.3c-4.7-4.7-12.4-4.7-17.1 0l-2.3 2.3c-3.8-1.9-7.7-3.6-11.7-4.8v-3.2c0-5.9-4.3-10.8-9.9-11.9v-12c.1-11.2.2-20.8-8.5-31.9 12.3-1.6 21.8-12.1 21.8-24.8 0-13.8-11.3-25-25.1-25h-28.7l-12.8-37C253.6 8.8 243 0 229.1 0h-135c-14 0-24.5 8.8-27.4 17.1L54 54.1H25.2C11.4 54.1.1 65.3.1 79.1c0 12.7 9.5 23.2 21.8 24.8-8.7 11-8.6 20.7-8.5 31.9v4.4l.1 36.1C5.7 178.9 0 186.1 0 194.6v5.6c0 8.5 5.7 15.8 13.5 18.2v22.3c0 8.9 7.3 16.1 16.2 16.1h28.2c8.9 0 16.2-7.2 16.2-16.1v-21.5h50.5c3.1 0 5.6-2.5 5.6-5.6 0-3.1-2.5-5.6-5.6-5.6H19.1c-4.3 0-7.8-3.5-7.8-7.8v-5.6c0-4.3 3.5-7.8 7.8-7.8l205-.2c-.2.9-.3 1.8-.3 2.7 0 3.2 1.3 6.3 3.5 8.5l2.3 2.3c-1.3 2.6-2.5 5.2-3.5 7.9h-74.8c-3.1 0-5.6 2.5-5.6 5.6 0 3.1 2.5 5.6 5.6 5.6h59.1c-.6 1.4-.9 3-.9 4.6v21.6c0 6.7 5.4 12.1 12.1 12.1h3.2c1.3 4 2.9 7.9 4.8 11.7l-2.3 2.3c-2.3 2.3-3.6 5.3-3.6 8.6 0 3.2 1.3 6.3 3.6 8.6l15.3 15.3c2.3 2.3 5.3 3.6 8.6 3.6 3.2 0 6.3-1.3 8.5-3.5l2.3-2.3c3.8 1.9 7.7 3.6 11.7 4.8v3.2c0 6.7 5.4 12.1 12.1 12.1h21.7c6.7 0 12.1-5.4 12.1-12.1v-3.2c4-1.3 7.9-2.9 11.7-4.8l2.3 2.3c2.3 2.3 5.3 3.6 8.6 3.6 3.2 0 6.3-1.3 8.5-3.5l15.3-15.3c2.3-2.3 3.5-5.3 3.5-8.6 0-3.2-1.3-6.3-3.5-8.5l-2.3-2.3c1.9-3.7 3.6-7.6 4.8-11.7h3.2c6.7 0 12.1-5.4 12.1-12.1v-21.6c.2-6.9-5.2-12.3-11.9-12.3m-309.1 7.5v21.5c0 2.7-2.3 4.9-4.9 4.9H29.6c-2.7 0-4.9-2.2-4.9-4.9v-21.5h38.1zM298 65.4c7.6 0 13.9 6.2 13.9 13.8 0 7.6-6.2 13.8-13.9 13.8h-7.4l-12.1-12.3-5.3-15.3H298zM77.4 20.8c1.1-3.3 7.2-9.6 16.8-9.6h134.9c9.5 0 15.6 6.2 16.8 9.6l22.3 64.7c.3.8.7 1.5 1.3 2.1l14.7 14.9 8.4 8.6c6.1 7.8 6 14.1 5.9 24.6v11.9h-12.6c-6.7 0-12.1 5.4-12.1 12.1v3.2c-4 1.3-8 2.9-11.7 4.8l-2.3-2.3c-4.7-4.7-12.4-4.7-17.1 0l-9.9 9.9-208 .2-.1-35.3v-4.5c-.1-10.4-.2-16.8 5.9-24.6l8.5-8.6 14.7-14.9c.6-.6 1-1.3 1.3-2.1l22.3-64.7zm-66 58.4c0-7.6 6.2-13.8 13.8-13.8h24.9l-5.3 15.3L32.7 93h-7.5c-7.6 0-13.8-6.2-13.8-13.8m361.4 166.3c0 .4-.4.8-.9.8h-7.5c-2.6 0-4.8 1.7-5.4 4.2-1.5 5.9-3.9 11.5-7 16.8-1.3 2.2-1 5 .9 6.9l5.3 5.3c.2.2.2.4.2.6 0 .2 0 .4-.2.6L342.9 296c-.2.2-.4.2-.6.2-.2 0-.4 0-.6-.3l-5.3-5.3c-1.8-1.8-4.6-2.2-6.8-.9-5.3 3.1-10.9 5.5-16.8 7-2.5.6-4.2 2.9-4.2 5.5v7.4c0 .5-.4.8-.9.8H286c-.5 0-.9-.4-.9-.8v-7.4c0-2.6-1.7-4.8-4.2-5.5-5.9-1.5-11.6-3.8-16.8-7-.9-.5-1.9-.8-2.9-.8-1.5 0-2.9.6-4 1.6l-5.3 5.3c-.2.2-.4.2-.6.2-.2 0-.4 0-.6-.3l-15.3-15.3c-.2-.2-.2-.4-.2-.6 0-.2 0-.4.2-.6l5.3-5.3c1.8-1.8 2.2-4.6.9-6.9-3.1-5.2-5.5-10.9-7-16.8-.6-2.5-2.9-4.2-5.4-4.2h-7.5c-.5 0-.9-.4-.9-.8v-21.6c0-.5.4-.8.9-.8h7.5c2.6 0 4.8-1.7 5.4-4.2 1.5-5.9 3.8-11.5 7-16.8 1.3-2.2 1-5-.9-6.9l-5.3-5.3c-.2-.2-.2-.4-.2-.6 0-.2 0-.4.2-.6l3.7-3.7 11.6-11.5c.3-.3.9-.3 1.2 0l5.3 5.3c1.8 1.8 4.6 2.2 6.8.9 5.3-3.1 10.9-5.4 16.8-7 2.5-.6 4.2-2.9 4.2-5.5v-7.4c0-.4.4-.8.9-.8h21.7c.5 0 .9.4.9.8v7.4c0 2.6 1.7 4.8 4.2 5.5 5.9 1.5 11.5 3.8 16.8 7 2.2 1.3 5 1 6.8-.9l5.3-5.3c.3-.3.9-.3 1.2 0l15.3 15.3c.2.2.2.4.2.6s0 .4-.2.6l-5.3 5.3c-1.8 1.8-2.2 4.6-.9 6.8 3.1 5.3 5.5 10.9 7 16.8.6 2.5 2.9 4.2 5.4 4.2h7.5c.5 0 .9.4.9.8v21.9z"/><path class="st0" d="M296.7 187.8c-9.7 0-18.9 2.9-26.8 8.4-2.5 1.8-3.2 5.3-1.4 7.8 1.8 2.5 5.3 3.2 7.8 1.4 6-4.2 13.1-6.4 20.4-6.4 19.7 0 35.8 16 35.8 35.6s-16 35.6-35.8 35.6c-19.7 0-35.7-16-35.7-35.6 0-4.1.7-8 2-11.8 1-2.9-.5-6.1-3.4-7.2-2.9-1-6.1.5-7.2 3.4-1.8 5-2.6 10.2-2.6 15.5 0 25.8 21.1 46.9 47 46.9s47-21 47-46.9c-.1-25.6-21.2-46.7-47.1-46.7"/></svg>