<svg xmlns="http://www.w3.org/2000/svg" width="35" height="35"><path fill="#fff" d="M35 15.402v19.593H0V15.402l5.957-4.383V-.006h23.086V11.02zM2.05 17.768v14.106l10.082-7.836zm1.965 15.175h26.97L17.5 22.463zm28.934-1.07V17.769l-10.081 6.27zm-3.906-18.308v4.217l3.104-1.932zM8.008 2.046v17.011l5.85 3.64 3.642-2.833 3.642 2.832 5.85-3.639V2.046zm-2.051 11.52L2.852 15.85l3.105 1.932zm7.086-2.571H11.63v-2.05h1.413c.116-.505.314-.977.581-1.402l-1-.999 1.45-1.45 1 1a4.539 4.539 0 011.4-.583V4.1h2.051v1.412a4.57 4.57 0 011.4.582l1-1 1.45 1.451-1 1c.267.424.466.896.582 1.4h1.413v2.05h-1.413a4.53 4.53 0 01-.582 1.4l1 1.001-1.45 1.45-1-1a4.569 4.569 0 01-1.4.581v1.413h-2.05v-1.413a4.571 4.571 0 01-1.4-.582l-1 1.001-1.451-1.45 1-1a4.53 4.53 0 01-.581-1.4zm1.933-1.026a2.526 2.526 0 002.524 2.523 2.526 2.526 0 002.523-2.523A2.527 2.527 0 0017.5 7.445a2.527 2.527 0 00-2.524 2.524z"/></svg>