<svg xmlns="http://www.w3.org/2000/svg" width="54" height="54"><path fill="#013e64" d="M0 27C0 12.09 12.09 0 27 0s27 12.09 27 27-12.09 27-27 27S0 41.91 0 27zm2.7 0c0 13.418 10.882 24.3 24.3 24.3 13.418 0 24.3-10.882 24.3-24.3C51.3 13.582 40.418 2.7 27 2.7 13.582 2.7 2.7 13.581 2.7 27zm40.792 1.952a4.05 4.05 0 014.05 4.05c0 .3-.087.728-.157 1.029-.08.346-.208.677-.34 1.006-2.165 5.397-6.487 9.902-12.322 12.135-.56.213-1.107.37-1.72.37a4.052 4.052 0 01-4.044-3.81 6.712 6.712 0 01-.006-.447c.112-7.933 6.58-14.333 14.539-14.333zM31.655 43.24c-.003.14-.01.284.008.423a1.351 1.351 0 001.34 1.178c.29 0 .529-.104.792-.205C39.08 42.6 42.94 38.432 44.75 33.478c.056-.156.09-.305.09-.476a1.35 1.35 0 00-1.35-1.35c-6.453 0-11.703 5.166-11.836 11.588zm11.837-20.893a1.35 1.35 0 001.35-1.35c0-.264-.084-.47-.173-.704C41.814 12.762 34.637 8.096 27 8.094c-7.637.002-14.814 4.668-17.67 12.199-.088.235-.172.44-.172.704 0 .745.605 1.35 1.35 1.35zm-32.984 2.7a4.05 4.05 0 01-3.874-5.23c.05-.164.074-.221.112-.324C9.97 10.793 18.218 5.395 27 5.394c8.782 0 17.031 5.4 20.254 14.1.038.102.061.16.111.323a4.05 4.05 0 01-3.874 5.23zm14.538 18.238c.002.15.003.298-.005.447a4.051 4.051 0 01-4.044 3.81c-.613 0-1.16-.157-1.72-.37-5.836-2.233-10.157-6.738-12.323-12.135a6.969 6.969 0 01-.34-1.006c-.07-.301-.156-.73-.156-1.029a4.05 4.05 0 014.05-4.05c7.958 0 14.427 6.4 14.539 14.333zM10.508 31.652a1.35 1.35 0 00-1.35 1.35c0 .17.035.32.09.476 1.812 4.954 5.672 9.123 10.957 11.158.263.1.502.205.792.205.687 0 1.255-.514 1.34-1.178.017-.14.011-.283.008-.423-.133-6.422-5.384-11.588-11.837-11.588z"/></svg>