<svg xmlns="http://www.w3.org/2000/svg" width="50" height="50"><path fill="#fd6b1c" d="M11.995 17.297H8.079L1.044 5.572l4.528-4.528 11.725 7.035v3.916l6.78 6.778 5.1-5.1-1.768-5.302L35.779 0l7.955 2.651-5.303 5.303.884 2.651 2.651.884 5.303-5.302 2.652 7.954-8.372 8.371-5.303-1.768-3.319 3.32 8.82 8.821h3.52L50 37.62v5.607L43.223 50h-5.61l-4.712-4.737V41.73l-8.82-8.82-3.337 3.335 1.768 5.304-8.371 8.37-7.954-2.65 5.302-5.303-.884-2.652-2.65-.884-5.304 5.303L0 35.78l8.371-8.371 5.303 1.767 5.1-5.1zm26.95 19.856l-1.777 1.774-9.552-9.551-1.768 1.767 9.553 9.552v3.535l3.252 3.27h3.535l5.312-5.31v-3.536l-3.27-3.269h-3.517l-9.553-9.554-1.768 1.768zM9.046 30.269L2.86 36.455l.884 2.652 3.535-3.535 5.303 1.767 1.767 5.303-3.535 3.535 2.652.884 6.186-6.186-1.768-5.303 8.844-8.844 8.843-8.844 5.303 1.768 6.187-6.186-.884-2.652-3.535 3.536-5.303-1.768-1.768-5.304 3.535-3.534-2.651-.884-6.186 6.186 1.767 5.304-8.843 8.843-8.844 8.843zm5.752-17.239V9.495L5.96 4.192 4.192 5.96l5.303 8.837h3.535l7.511 7.512 1.768-1.768z"/></svg>