<svg xmlns="http://www.w3.org/2000/svg" xmlns:xlink="http://www.w3.org/1999/xlink" viewBox="0 0 384 382"><style>.st1{clip-path:url(#SVGID_4_)}</style><defs><path id="SVGID_1_" d="M0 0h384v382H0z"/></defs><clipPath id="SVGID_2_"><use xlink:href="#SVGID_1_" overflow="visible"/></clipPath><path d="M82.4 100.5c-2.2.8-3.7 2.9-3.7 5.2v70.6c0 3.1 2.5 5.6 5.7 5.6 3.1 0 5.7-2.5 5.7-5.6v-66.9c22-9.6 36.5-31.2 36.5-54.9 0-19.8-10.1-38.4-26.9-49.7-2.5-1.6-10-6.7-16.2-3.1-6.1 3.5-4.8 9.5-5.2 15.6 0 .4.1 33.6.1 33.6 0 8.3-6.6 15.3-15 16.1-8.4-.8-15-7.7-15-16.1l.1-33.6c-.5-5.5.7-12.1-5.4-15.6-6.3-3.5-13.7 1.5-16.2 3.1C10.1 16.1 0 34.7 0 54.5c0 23.7 14.5 45.3 36.5 54.9v163.1c-22 9.7-36.5 31.3-36.5 55 0 19.8 10.1 38.4 26.9 49.7 2.5 1.6 10 6.7 16.2 3.1 6.1-3.5 5.1-7.8 5.2-15.6 0-.4-.1-.7-.1-.9V331c0-8.3 6.6-15.3 15-16.1 8.4.7 15 7.7 15 16.1l-.1 33.6c.3 6.2-.9 12.1 5.2 15.6 1.6.9 3.2 1.2 4.8 1.2 4.9 0 9.5-3.1 11.4-4.4 16.9-11.3 26.9-29.8 26.9-49.7 0-23.7-14.5-45.3-36.5-54.9V202c0-3.1-2.5-5.6-5.7-5.6-3.1 0-5.7 2.5-5.7 5.6v74.2c0 2.3 1.5 4.4 3.7 5.2 19.6 7.1 32.8 25.6 32.8 45.9 0 16.2-8.2 31.3-21.9 40.5-1.7 1.2-2.9 1.8-3.7 2.1l.2-39c0-14.3-11.4-26.3-26-27.3h-.8c-14.6 1-26 12.9-26 27.3l.2 39c-.8-.3-2-.9-3.7-2.1-13.7-9.2-21.9-24.3-21.9-40.5 0-20.4 13.2-38.8 32.8-45.9 2.2-.8 3.7-2.9 3.7-5.2V105.7c0-2.3-1.5-4.4-3.7-5.2-19.6-7.1-32.8-25.6-32.8-45.9 0-16.2 8.2-31.3 21.9-40.5 1.7-1.2 2.9-1.8 3.7-2.1.1 1-.2 39-.2 39 0 14.3 11.4 26.3 26 27.2h.8c14.6-1 26-12.9 26-27.2 0 0-.3-38-.2-39 .8.3 2 .9 3.7 2.1 13.7 9.2 21.9 24.3 21.9 40.5.2 20.3-13 38.8-32.6 45.9" clip-path="url(#SVGID_2_)"/><defs><path id="SVGID_3_" d="M0 0h384v382H0z"/></defs><clipPath id="SVGID_4_"><use xlink:href="#SVGID_3_" overflow="visible"/></clipPath><path class="st1" d="M338.2 182.2c3.1 0 5.7-2.5 5.7-5.6l.1-47.8c11.2-5 20.7-12.8 27.8-22.8 8-11.3 12.2-24.5 12.2-38.3C384 30.6 353.2.5 315.3.5c-37.9 0-68.7 30.2-68.7 67.2 0 13.8 4.2 27.1 12.2 38.3 7.1 10 16.6 17.8 27.8 22.8V287c-14.8 9.5-23.9 25.7-23.9 43.1 0 28.4 23.6 51.4 52.5 51.4 29.6 0 52.5-27.7 52.5-51.4 0-24.3-12.2-35.8-23.9-42.9l.1-85.1c0-3.1-2.5-5.6-5.7-5.6-3.1 0-5.7 2.5-5.7 5.6l-.1 88.3c0 2 1.1 3.9 2.9 4.9 10.9 6 21 14.4 21 34.8 0 18.2-18.4 40.3-41.1 40.3-22.7 0-41.1-18.1-41.1-40.3 0-14.5 8-28 21-35.1 1.8-1 2.9-2.8 2.9-4.9V125.2c0-2.3-1.4-4.4-3.6-5.2-22.1-8.5-36.4-29-36.4-52.2 0-30.9 25.7-56.1 57.3-56.1 31.6 0 57.3 25.2 57.3 56.1 0 23.3-14.3 43.8-36.4 52.2-2.2.8-3.6 2.9-3.6 5.2l-.1 51.4c.1 3.1 2.6 5.6 5.7 5.6M178.6 325.4c3.1 0 5.7-2.5 5.7-5.6v-56.6c0-3.1-2.5-5.6-5.7-5.6-3.1 0-5.7 2.5-5.7 5.6v56.6c0 3.1 2.5 5.6 5.7 5.6m26.8 0c3.1 0 5.7-2.5 5.7-5.6v-56.6c0-3.1-2.5-5.6-5.7-5.6-3.1 0-5.7 2.5-5.7 5.6v56.6c.1 3.1 2.6 5.6 5.7 5.6"/><path class="st1" d="M235.9 211.7c0-7.8-6.5-14.2-14.5-14.2h-8V75.6c6.9-4.3 11.2-11.9 11.2-20.1v-45C224.6 5 220 .4 214.3.4h-44.8c-5.7 0-10.3 4.5-10.3 10.1v45c0 8.2 4.3 15.7 11.2 20.1v121.9h-8c-8 0-14.5 6.4-14.5 14.2v132.2c-.1 2.6-.1 5.1 1 8.7l6.8 21.2c2.3 7 7.4 7.8 9.4 7.8h53.3c2.1 0 7.1-.8 9.4-7.8l6.8-21.1c1.2-3.6 1.1-6.1 1-8.7.3-.8.3-132.3.3-132.3m-65.2-200h42.6v12.9h-42.6V11.7zm7.9 55.5c-4.8-2-7.8-6.6-7.8-11.7V35.7h42.6v19.8c0 5-3.1 9.6-7.8 11.7-2.1.9-3.4 2.9-3.4 5.1v125.2H182V72.3c0-2.2-1.4-4.2-3.4-5.1m38.6 303.1h-50.5l-5.7-17.8h61.9l-5.7 17.8zm7.3-29h-65v-99.6h65v99.6zm0-110.8h-65v-18.8c0-1.7 1.4-3 3.1-3h58.8c1.7 0 3.1 1.4 3.1 3v18.8zM349.2 91.2c2.7-1.5 3.8-3.4 3.8-6.4V50.9c.1-3.1-1.1-5-3.8-6.5-.1-.1-29.9-16.9-30-17-2.6-1.6-5-1.6-7.6 0-.1.1-29.9 16.9-30 17-2.8 1.4-3.9 3.4-3.8 6.4v34c-.1 3 1.1 5 3.8 6.4.1.1 30 17 30.1 17 1.3.8 2.5 1.2 3.7 1.2s2.4-.4 3.7-1.2c.1-.1 29.6-16.8 29.6-16.8.2-.1.4-.2.5-.2m-7.6-8.6l-26.3 14.9L289 82.7V52.9l26.3-14.8L341.6 53v29.6zm-49.4 247.5c0 12.5 10.4 22.7 23.2 22.7 12.8 0 23.2-10.2 23.2-22.7s-10.4-22.7-23.2-22.7c-12.9 0-23.2 10.2-23.2 22.7m34.9 0c0 6.4-5.3 11.5-11.8 11.5-6.5 0-11.8-5.2-11.8-11.5 0-6.4 5.3-11.5 11.8-11.5 6.5-.1 11.8 5.1 11.8 11.5"/></svg>