<svg xmlns="http://www.w3.org/2000/svg" width="81" height="90"><path fill="#013e64" d="M62.459 11.684c.454-.22 1.031.151.997.67.008 2.265-.001 4.532.004 6.8 0 .705.4 1.39 1.014 1.72a700.87 700.87 0 003.758 2.23c.587.362 1.359.36 1.947.003 1.259-.738 2.51-1.488 3.764-2.233.613-.328 1.014-1.012 1.02-1.714.003-2.268 0-4.534.002-6.802-.059-.55.617-.93 1.062-.637a11.863 11.863 0 013.326 3.674c1.395 2.372 1.925 5.253 1.491 7.98a12.011 12.011 0 01-4.478 7.632c-1.546 1.191-2.532 3.11-2.564 5.087-.002 9.683-.002 19.365-.002 29.048-.022.807.075 1.635-.157 2.422-.359 1.299-1.296 2.42-2.504 2.98a4.578 4.578 0 01-3.252.23c-1.879-.534-3.277-2.41-3.272-4.396-.006-10.054-.003-20.105-.005-30.158a6.606 6.606 0 00-1.787-4.51c-.492-.536-1.104-.933-1.627-1.435a12.002 12.002 0 01-3.15-4.957c-.615-1.772-.732-3.693-.501-5.548.451-3.23 2.265-6.245 4.914-8.086 2.65-1.84 0 0 0 0zm5.236 54.928c.199.808 1.083 1.358 1.879 1.137.761-.165 1.298-.973 1.174-1.753-.081-.98-1.202-1.65-2.091-1.272-.722.27-1.182 1.126-.962 1.888zM39.418 23.855c2.17-3.594 6.013-6.27 10.22-6.455 1.743-.016 3.488-.002 5.231-.008.35-.037.711.266.669.64-.076.495-.218.978-.257 1.48-.039.293-.04.674-.335.835-.168.126-.383.087-.575.097-1.418-.007-2.834 0-4.25-.003-2.734-.053-5.29 1.49-7.011 3.572-.762.881-1.291 1.93-1.88 2.927-1.411 2.452-2.812 4.908-4.234 7.353 8.103-.048 16.209-.008 24.313-.023.53-.06 1.042.41 1.003.96.002 8.856-.001 17.713 0 26.568-.005.328.02.66-.022.987-.09.45-.535.757-.977.714-5.798-.003-11.598.003-17.396-.005 1.2-1.49 2.403-2.977 3.603-4.465.642-.77 1.586-1.352 2.605-1.312 3.692-.006 7.386 0 11.08-.002v-1.867c-3.776-.002-7.552-.004-11.327-.002-1.515.027-2.907.891-3.845 2.065-1.496 1.86-3.012 3.705-4.491 5.579-1.558.019-3.115 0-4.671.009a9.686 9.686 0 01-6.33-2.302 9.962 9.962 0 01-3.231-5.213c-.277-1.042-.318-2.13-.306-3.205V47.1c.008-1.491-.08-3.004.29-4.46.654-2.92 2.58-5.511 5.153-6.964.122-.076.26-.143.33-.28 2.217-3.845 4.417-7.7 6.64-11.54 2.225-3.84 0 0 0 0zm-3.582 14.95a.82.82 0 00.022.101c.082.39.032.154 0 0 .121.435.575.64.933.855 1.574.958 3.153 1.909 4.728 2.865a9.224 9.224 0 004.468 1.2c5.067.007 10.136-.01 15.203.007.027-.632.013-1.262.007-1.895-5.028.007-10.058.002-15.086.005a7.823 7.823 0 01-2.183-.308c-1.09-.293-2.013-.975-2.977-1.539-1.27-.766-2.533-1.543-3.807-2.296-.63-.356-1.457.298-1.308 1.005zm-6.29 5.287c-.327 1.039-.051 2.158.405 3.11.249.538.71.934 1.171 1.283 1.22.885 2.62 1.48 4.042 1.94 1.88.542 3.905.864 5.83.37.486-.147 1.045-.274 1.357-.72.31-.443.173-1.026-.031-1.483-.52-1.125-1.413-2.006-2.292-2.846-1.71-1.52-3.629-2.837-5.759-3.664-.851-.295-1.824-.58-2.693-.217-.92.444-1.735 1.212-2.03 2.227zm-2.28-15.132c.904-.021 1.825.178 2.604.658.726.445 1.325 1.155 1.509 2.012.23.972-.162 2.026-.885 2.685-.908.895-2.229 1.202-3.462 1.138-1.32-.067-2.699.19-3.963-.311-.964-.363-1.834-1.123-2.146-2.142-.28-.877-.047-1.874.53-2.575.714-.883 1.828-1.357 2.932-1.446.96-.04 1.92-.007 2.88-.02zm1.588 33.242c1.63 1.5 3.647 2.588 5.82 2.981 1.743.332 3.524.104 5.282.21.018 1.383.13 2.843-.474 4.129-.321.714-.92 1.44-1.754 1.45-2.272 0-4.545.006-6.817-.004-.669-.016-1.202-.525-1.522-1.08-.614-1.049-.718-2.31-.69-3.504.014-1.356-.031-2.714.02-4.069z"/><path fill="#fd6b1c" d="M34.602.638c1.05-.233 2.115-.404 3.166-.64a95.5 95.5 0 013.11 5.799 38.276 38.276 0 016.392-.025.587.587 0 01.47.191c-4.907.466-9.739 1.855-14.122 4.157-5.761 2.991-10.752 7.493-14.374 12.942-4.807 7.165-7.134 15.995-6.514 24.643a39.136 39.136 0 004.122 15.084c4.007 8.009 10.808 14.53 18.91 18.124a37.534 37.534 0 0011.957 3.122c-.132.21-.376.189-.587.202a35.749 35.749 0 01-6.242-.04 105.716 105.716 0 01-3.122 5.8c-1.998-.395-4.006-.755-5.956-1.359-1.384-.355-2.696-.933-4.052-1.367-.051-2.2.013-4.394.133-6.589a38.293 38.293 0 01-5.6-3.272c-.111-.067-.255-.214-.381-.093a76.455 76.455 0 01-5.395 3.326c-1.578-1.347-3.142-2.714-4.55-4.246-.983-1.018-1.876-2.119-2.765-3.219 1.061-1.895 2.137-3.787 3.36-5.581-1.313-1.879-2.438-3.888-3.406-5.971-2.145.168-4.3.142-6.45.145-.775-2.09-1.478-4.215-1.956-6.4a144.317 144.317 0 01-.743-3.73l.033-.07c1.85-1.102 3.718-2.179 5.653-3.12-.175-2.277-.211-4.577.015-6.855-1.047-.583-2.132-1.095-3.165-1.704-.857-.47-1.687-.987-2.543-1.456.4-2.158.793-4.326 1.43-6.428.37-1.28.822-2.53 1.276-3.78 2.147-.008 4.294-.008 6.435.157.986-2.078 2.105-4.096 3.417-5.982-1.23-1.788-2.302-3.683-3.362-5.578 1.821-2.296 3.817-4.454 6.035-6.357.428-.363.858-.72 1.28-1.093 1.848.994 3.628 2.128 5.379 3.293.137.132.293 0 .413-.083a38.276 38.276 0 015.136-3.044c.144-.09.351-.105.443-.266-.006-.952-.12-1.903-.116-2.857-.04-1.211-.006-2.424-.032-3.636A43.773 43.773 0 0134.602.638z"/></svg>