<svg xmlns="http://www.w3.org/2000/svg" width="81" height="90"><path fill="#fff" d="M62.459 11.683c.454-.22 1.031.152.997.67.008 2.266-.001 4.532.004 6.8 0 .705.4 1.39 1.014 1.72 1.25.746 2.502 1.491 3.757 2.23.588.362 1.36.36 1.948.004 1.259-.738 2.51-1.488 3.764-2.233.613-.329 1.014-1.013 1.02-1.715.003-2.268 0-4.534.001-6.802-.058-.55.618-.93 1.063-.637a11.865 11.865 0 013.326 3.675c1.395 2.372 1.925 5.252 1.49 7.98a12.013 12.013 0 01-4.477 7.631c-1.546 1.192-2.532 3.11-2.564 5.087-.002 9.683-.002 19.365-.002 29.048-.022.807.075 1.635-.157 2.423-.359 1.298-1.296 2.418-2.505 2.98a4.576 4.576 0 01-3.25.228c-1.88-.533-3.278-2.41-3.273-4.395-.007-10.054-.003-20.105-.005-30.158a6.607 6.607 0 00-1.787-4.51c-.492-.536-1.104-.933-1.627-1.435a12 12 0 01-3.15-4.957c-.615-1.772-.732-3.693-.501-5.548.451-3.23 2.265-6.244 4.914-8.086 2.65-1.84 0 0 0 0zm5.236 54.928c.199.809 1.082 1.358 1.879 1.137.76-.165 1.298-.973 1.174-1.753-.081-.98-1.202-1.65-2.091-1.272-.722.27-1.182 1.126-.962 1.888zM39.418 23.854c2.17-3.594 6.013-6.27 10.22-6.454 1.743-.016 3.488-.002 5.231-.008.35-.038.711.266.669.64-.076.494-.218.977-.257 1.479-.039.294-.04.674-.335.835-.168.126-.383.088-.576.097-1.417-.007-2.833 0-4.25-.003-2.733-.053-5.29 1.49-7.01 3.572-.762.882-1.291 1.93-1.88 2.927-1.411 2.452-2.812 4.909-4.234 7.353 8.103-.047 16.209-.008 24.313-.023.53-.06 1.042.41 1.003.96.002 8.857-.001 17.713 0 26.569-.005.327.02.66-.022.986a.92.92 0 01-.977.715c-5.798-.004-11.598.002-17.396-.006 1.2-1.489 2.403-2.977 3.603-4.465.641-.769 1.586-1.351 2.605-1.312 3.692-.005 7.386 0 11.08-.002v-1.867c-3.776-.002-7.552-.004-11.327-.002-1.515.027-2.907.892-3.845 2.065-1.496 1.861-3.012 3.706-4.491 5.58-1.558.018-3.115 0-4.671.008a9.691 9.691 0 01-6.33-2.302 9.963 9.963 0 01-3.231-5.213c-.277-1.042-.319-2.13-.307-3.204v-5.682c.009-1.49-.079-3.002.291-4.459.654-2.92 2.58-5.511 5.153-6.964.122-.076.26-.143.33-.28 2.217-3.845 4.417-7.7 6.64-11.54 2.224-3.84 0 0 0 0zm-3.582 14.95a.82.82 0 00.022.102c.121.434.575.64.933.855 1.574.958 3.153 1.908 4.728 2.864a9.222 9.222 0 004.468 1.2c5.067.007 10.135-.01 15.203.007.026-.631.013-1.263.007-1.894-5.028.006-10.058.002-15.086.004a7.819 7.819 0 01-2.183-.308c-1.09-.292-2.013-.975-2.977-1.538-1.27-.767-2.533-1.543-3.807-2.297-.63-.356-1.458.298-1.308 1.005zm.022.102c.082.389.032.154 0 0zm-6.311 5.186c-.328 1.038-.052 2.158.403 3.109.25.539.71.934 1.172 1.284 1.22.885 2.62 1.478 4.042 1.94 1.88.541 3.905.864 5.83.37.486-.148 1.045-.274 1.357-.72.31-.443.173-1.027-.031-1.484-.52-1.125-1.413-2.006-2.292-2.846-1.71-1.52-3.629-2.837-5.76-3.663-.85-.296-1.823-.582-2.692-.218-.92.444-1.735 1.212-2.03 2.228zm-2.282-15.133c.904-.02 1.825.179 2.604.658.726.445 1.325 1.155 1.509 2.013.23.972-.162 2.025-.885 2.684-.908.895-2.229 1.202-3.462 1.138-1.32-.066-2.699.19-3.963-.311-.964-.363-1.835-1.123-2.146-2.142-.28-.877-.047-1.874.53-2.575.714-.883 1.828-1.357 2.931-1.445.96-.04 1.921-.008 2.882-.02zM28.853 62.2c1.63 1.5 3.647 2.588 5.82 2.982 1.743.33 3.524.103 5.282.209.018 1.383.13 2.843-.474 4.129-.321.714-.92 1.44-1.754 1.45-2.273 0-4.545.006-6.817-.004-.669-.016-1.203-.525-1.522-1.08-.614-1.05-.718-2.31-.691-3.504.015-1.356-.03-2.714.02-4.069z"/><path fill="#fff" d="M34.602.637c1.05-.233 2.115-.404 3.166-.64a95.482 95.482 0 013.11 5.799 38.323 38.323 0 016.392-.025.588.588 0 01.47.191c-4.907.467-9.739 1.855-14.122 4.157-5.761 2.992-10.752 7.493-14.374 12.942-4.807 7.165-7.134 15.995-6.514 24.643a39.135 39.135 0 004.122 15.084c4.007 8.009 10.808 14.53 18.91 18.124a37.535 37.535 0 0011.957 3.122c-.133.21-.376.19-.587.202a35.792 35.792 0 01-6.242-.039 105.809 105.809 0 01-3.122 5.8c-1.998-.395-4.006-.756-5.956-1.36-1.384-.355-2.696-.932-4.053-1.367-.05-2.199.014-4.394.134-6.589a38.27 38.27 0 01-5.6-3.272c-.111-.067-.255-.214-.381-.093a76.416 76.416 0 01-5.395 3.327c-1.578-1.348-3.142-2.714-4.55-4.247-.983-1.018-1.876-2.118-2.765-3.219 1.061-1.894 2.137-3.787 3.36-5.58-1.313-1.88-2.438-3.89-3.406-5.972-2.145.168-4.3.142-6.45.145-.776-2.09-1.478-4.215-1.956-6.4a144.685 144.685 0 01-.743-3.729l.033-.07c1.85-1.103 3.718-2.18 5.653-3.12-.175-2.278-.211-4.578.015-6.856-1.047-.583-2.133-1.094-3.165-1.704-.857-.47-1.687-.986-2.543-1.456.4-2.158.792-4.326 1.43-6.428.37-1.279.821-2.53 1.276-3.78 2.147-.008 4.294-.008 6.435.157.986-2.078 2.105-4.096 3.417-5.982-1.23-1.788-2.302-3.683-3.362-5.577 1.821-2.297 3.817-4.455 6.035-6.358.428-.363.858-.72 1.279-1.092 1.85.994 3.629 2.127 5.38 3.293.137.132.293-.002.413-.084A38.297 38.297 0 0127.44 9.54c.144-.09.35-.105.443-.266-.006-.952-.12-1.903-.116-2.857-.04-1.21-.007-2.424-.032-3.635A43.81 43.81 0 0134.602.637z"/></svg>