<svg xmlns="http://www.w3.org/2000/svg" width="205" height="60"><text fill="#222" dominant-baseline="text-before-edge" font-family="'Barlow-Black','Barlow-Black'" font-size="38" font-style="none" font-weight="400" transform="translate(66 7)"><tspan style="font-kerning:normal" letter-spacing="-.95">CARDAN</tspan></text><path fill="#013e64" d="M41.663 7.79c.303-.147.688.1.665.445.006 1.511 0 3.022.003 4.534 0 .47.267.927.676 1.147.834.498 1.67.994 2.507 1.486.392.242.907.241 1.3.002.839-.491 1.674-.99 2.51-1.488a1.33 1.33 0 00.68-1.143c.002-1.512 0-3.023.001-4.535-.039-.366.412-.62.709-.424a7.902 7.902 0 012.219 2.45 8.089 8.089 0 01.994 5.32 8.01 8.01 0 01-2.987 5.088 4.438 4.438 0 00-1.71 3.39c-.002 6.455-.002 12.911-.002 19.366-.014.538.05 1.09-.104 1.614a3.135 3.135 0 01-1.67 1.987 3.059 3.059 0 01-2.17.154c-1.253-.356-2.186-1.607-2.183-2.932-.004-6.701-.001-13.403-.003-20.105a4.402 4.402 0 00-1.192-3.006c-.328-.357-.736-.622-1.085-.956a8.007 8.007 0 01-2.101-3.306c-.41-1.18-.489-2.462-.334-3.697.3-2.153 1.51-4.164 3.277-5.392 1.768-1.226 0 0 0 0zm3.493 36.617c.133.54.722.907 1.253.758.508-.11.867-.648.784-1.167-.055-.654-.802-1.1-1.395-.85-.482.182-.788.752-.642 1.26zM26.294 15.903c1.447-2.395 4.01-4.18 6.818-4.302 1.162-.011 2.326-.002 3.489-.006.233-.025.474.178.446.427-.05.33-.146.652-.172.985-.025.197-.026.45-.223.557-.112.085-.256.06-.384.065-.946-.005-1.89 0-2.835-.002-1.823-.035-3.529.994-4.676 2.382-.509.588-.862 1.286-1.255 1.951-.94 1.635-1.875 3.272-2.824 4.902 5.406-.031 10.812-.005 16.218-.016a.619.619 0 01.67.64V41.2c-.004.218.012.44-.015.659a.615.615 0 01-.652.476c-3.868-.003-7.736.001-11.604-.004.8-.994 1.603-1.985 2.403-2.977.428-.513 1.059-.902 1.738-.875 2.463-.003 4.927 0 7.39-.001l.001-1.246c-2.518 0-5.037-.002-7.555 0-1.011.018-1.94.595-2.566 1.376-.997 1.241-2.008 2.47-2.995 3.72-1.04.012-2.078 0-3.116.006a6.468 6.468 0 01-4.222-1.535 6.64 6.64 0 01-2.156-3.475c-.185-.695-.212-1.42-.204-2.137v-3.788c.005-.993-.053-2.001.194-2.972a7.207 7.207 0 013.437-4.643c.081-.05.174-.094.22-.186 1.479-2.564 2.946-5.134 4.43-7.694 1.483-2.56 0 0 0 0zm-2.39 9.967a.547.547 0 00.015.068c.055.257.022.103 0 0 .081.29.384.427.622.57 1.05.638 2.104 1.271 3.154 1.91a6.152 6.152 0 002.98.799c3.38.004 6.762-.006 10.142.004.018-.42.009-.84.005-1.262-3.355.004-6.71.001-10.064.002a5.213 5.213 0 01-1.456-.204c-.727-.196-1.342-.65-1.986-1.026-.846-.51-1.689-1.028-2.539-1.53-.42-.238-.972.199-.872.669zm-4.195 3.525c-.219.692-.034 1.438.27 2.073.166.36.473.622.781.855.814.59 1.748.987 2.696 1.294 1.254.362 2.605.576 3.889.247.324-.098.697-.184.906-.48.206-.296.115-.685-.021-.99-.347-.75-.943-1.337-1.53-1.897-1.14-1.013-2.42-1.89-3.84-2.442-.568-.197-1.217-.387-1.797-.145-.613.295-1.157.807-1.354 1.485zm-1.522-10.088c.603-.014 1.217.119 1.737.438.484.296.884.77 1.007 1.341.153.649-.108 1.352-.59 1.79-.606.598-1.487.802-2.31.759-.88-.044-1.8.127-2.643-.207-.643-.242-1.224-.748-1.432-1.428-.186-.584-.031-1.25.354-1.716.476-.59 1.219-.905 1.955-.965.64-.026 1.282-.004 1.922-.012zm1.06 22.162c1.087 1 2.432 1.724 3.882 1.987 1.162.22 2.35.069 3.523.139.012.922.087 1.896-.316 2.753-.214.476-.614.96-1.17.966-1.516 0-3.032.004-4.548-.002-.446-.01-.802-.35-1.015-.72-.41-.7-.478-1.54-.46-2.336.01-.904-.02-1.81.013-2.712z"/><path fill="#fd6b1c" d="M23.081.426C23.782.27 24.492.157 25.193 0a63.727 63.727 0 012.075 3.866 25.499 25.499 0 014.264-.017.394.394 0 01.314.128c-3.274.31-6.497 1.236-9.42 2.77a25.922 25.922 0 00-9.589 8.63C9.63 20.15 8.078 26.038 8.492 31.802A26.09 26.09 0 0011.24 41.86c2.673 5.34 7.21 9.686 12.614 12.081a25.032 25.032 0 007.976 2.082c-.088.14-.25.127-.392.135-1.385.114-2.78.102-4.163-.026a70.3 70.3 0 01-2.083 3.866c-1.332-.263-2.672-.504-3.973-.905-.923-.237-1.798-.622-2.703-.912-.034-1.467.009-2.93.09-4.393a25.474 25.474 0 01-3.737-2.182c-.074-.044-.17-.141-.254-.06a50.912 50.912 0 01-3.598 2.216c-1.053-.898-2.096-1.81-3.035-2.83-.656-.68-1.252-1.413-1.845-2.147.708-1.263 1.426-2.524 2.241-3.72a26.329 26.329 0 01-2.272-3.981c-1.43.112-2.867.095-4.302.097C1.288 39.787.82 38.371.5 36.914a97.024 97.024 0 01-.495-2.486l.022-.046c1.234-.736 2.48-1.454 3.77-2.08-.116-1.52-.14-3.053.01-4.571-.698-.39-1.422-.73-2.11-1.137-.572-.312-1.126-.657-1.697-.97.267-1.44.529-2.885.954-4.286.246-.852.548-1.687.851-2.519 1.432-.006 2.865-.005 4.293.104.657-1.385 1.404-2.73 2.279-3.987-.821-1.193-1.536-2.456-2.243-3.72 1.216-1.53 2.547-2.967 4.026-4.237.285-.24.572-.48.853-.728 1.234.662 2.42 1.418 3.589 2.196.091.087.195-.002.275-.056a25.514 25.514 0 013.426-2.03c.097-.06.234-.07.296-.176-.004-.636-.08-1.269-.078-1.905-.027-.807-.004-1.617-.021-2.424a29.043 29.043 0 014.581-1.43z"/><text fill="#222" dominant-baseline="text-before-edge" font-family="'Barlow','Barlow-Medium'" font-size="14" transform="translate(66 42)"><tspan style="font-kerning:normal" letter-spacing=".34">Auto Repair Services</tspan></text></svg>