<svg xmlns="http://www.w3.org/2000/svg" width="205" height="60"><text fill="#fff" dominant-baseline="text-before-edge" font-family="'Barlow-Black','Barlow-Black'" font-size="38" font-style="none" font-weight="400" transform="translate(66 7)"><tspan style="font-kerning:normal" letter-spacing="-.95">CARDAN</tspan></text><path fill="#fff" d="M41.663 7.789c.303-.146.688.101.666.445.005 1.511-.001 3.022.002 4.534 0 .471.267.928.676 1.148.834.497 1.67.994 2.507 1.487.392.24.907.24 1.3.002.839-.492 1.674-.992 2.51-1.49a1.33 1.33 0 00.68-1.142c.002-1.511 0-3.023.001-4.535-.039-.366.412-.62.709-.424a7.904 7.904 0 012.219 2.449 8.093 8.093 0 01.994 5.32 8.01 8.01 0 01-2.987 5.088 4.438 4.438 0 00-1.71 3.391c-.002 6.456-.002 12.91-.002 19.366-.014.538.05 1.09-.104 1.614a3.138 3.138 0 01-1.67 1.987 3.062 3.062 0 01-2.17.153c-1.253-.355-2.186-1.607-2.183-2.931-.004-6.702-.001-13.403-.003-20.104a4.403 4.403 0 00-1.192-3.007c-.328-.358-.736-.622-1.085-.956a8.011 8.011 0 01-2.101-3.305c-.41-1.182-.489-2.463-.334-3.698.3-2.153 1.51-4.165 3.277-5.392 1.768-1.227 0 0 0 0zm3.493 36.619c.133.539.722.905 1.253.758.508-.11.867-.65.784-1.17-.055-.653-.802-1.098-1.395-.847-.482.18-.788.75-.642 1.259zM33.112 11.6c1.162-.012 2.326-.002 3.489-.006.233-.026.474.178.446.427-.05.33-.146.651-.172.985-.025.196-.026.45-.223.557-.112.085-.256.059-.384.065-.946-.005-1.89 0-2.835-.002-1.823-.036-3.529.994-4.676 2.382-.509.588-.862 1.285-1.255 1.951-.94 1.635-1.875 3.272-2.824 4.901 5.406-.03 10.812-.004 16.218-.014a.618.618 0 01.67.64V41.2c-.004.218.012.438-.015.657a.616.616 0 01-.652.476c-3.868-.002-7.736.002-11.604-.004.8-.993 1.603-1.984 2.403-2.976.428-.514 1.059-.902 1.738-.875 2.463-.004 4.927 0 7.39-.002l.001-1.245c-2.518 0-5.037-.002-7.555 0-1.011.018-1.94.594-2.566 1.376-.997 1.24-2.008 2.47-2.995 3.72-1.04.012-2.078 0-3.116.006a6.468 6.468 0 01-4.222-1.536 6.64 6.64 0 01-2.156-3.474c-.185-.695-.212-1.421-.204-2.137v-3.788c.005-.993-.053-2 .194-2.972a7.206 7.206 0 013.437-4.642c.081-.051.174-.096.22-.187 1.479-2.564 2.946-5.134 4.43-7.694 1.447-2.395 4.01-4.18 6.818-4.302zm-9.207 14.27a.548.548 0 00.014.068c.081.29.384.425.622.569 1.05.639 2.104 1.273 3.154 1.91a6.153 6.153 0 002.98.8c3.38.005 6.762-.007 10.142.005.018-.421.009-.842.005-1.263-3.355.005-6.71.001-10.064.003a5.238 5.238 0 01-1.456-.205c-.727-.196-1.342-.651-1.986-1.027-.846-.51-1.689-1.028-2.539-1.53-.42-.238-.972.2-.872.67zm-4.196 3.525c-.219.692-.034 1.438.27 2.072.166.36.473.623.781.856.814.59 1.748.986 2.696 1.294 1.254.361 2.605.576 3.889.247.324-.098.697-.184.906-.48.206-.296.115-.686-.021-.99-.347-.75-.943-1.337-1.53-1.897-1.14-1.013-2.42-1.89-3.84-2.443-.568-.196-1.217-.386-1.797-.145-.613.296-1.157.809-1.354 1.486zm-1.522-10.089c.604-.014 1.217.12 1.737.439.484.297.884.77 1.007 1.342.153.648-.108 1.35-.59 1.789-.606.598-1.487.802-2.31.759-.88-.044-1.8.127-2.643-.207-.643-.243-1.224-.749-1.432-1.428-.186-.584-.031-1.25.354-1.716.476-.59 1.219-.905 1.955-.965.64-.026 1.282-.005 1.922-.013zm1.06 22.163c1.087 1 2.432 1.723 3.882 1.987 1.162.22 2.35.068 3.523.139.012.922.087 1.895-.316 2.753-.214.475-.614.959-1.17.967-1.516 0-3.032.004-4.548-.004-.446-.01-.802-.349-1.015-.72-.41-.699-.478-1.539-.46-2.335.01-.905-.02-1.81.013-2.713z"/><path fill="#fd6b1c" d="M23.081.426c.701-.157 1.411-.27 2.112-.427a64.093 64.093 0 012.075 3.864 25.57 25.57 0 014.264-.015.391.391 0 01.314.127c-3.274.31-6.497 1.236-9.42 2.77a25.936 25.936 0 00-9.589 8.63C9.63 20.15 8.078 26.038 8.492 31.802A26.086 26.086 0 0011.24 41.86c2.673 5.339 7.21 9.685 12.614 12.082a25.066 25.066 0 007.976 2.081c-.088.14-.25.127-.392.135-1.385.114-2.78.101-4.163-.026a70.3 70.3 0 01-2.083 3.866c-1.332-.264-2.672-.505-3.973-.906-.923-.237-1.798-.621-2.703-.911-.034-1.467.009-2.93.09-4.393a25.53 25.53 0 01-3.737-2.181c-.074-.045-.17-.143-.254-.062a50.92 50.92 0 01-3.598 2.217c-1.053-.898-2.096-1.81-3.035-2.831-.656-.679-1.252-1.412-1.845-2.146.708-1.264 1.426-2.524 2.241-3.72a26.329 26.329 0 01-2.272-3.982c-1.43.113-2.867.096-4.302.097C1.288 39.787.82 38.37.5 36.913a96.403 96.403 0 01-.495-2.485l.022-.047c1.234-.734 2.48-1.453 3.77-2.08-.116-1.52-.14-3.053.01-4.57-.698-.39-1.422-.73-2.11-1.136-.572-.313-1.126-.659-1.697-.971.267-1.439.529-2.884.954-4.285.246-.853.548-1.688.851-2.52 1.432-.007 2.865-.006 4.293.104.657-1.385 1.404-2.73 2.279-3.987-.821-1.193-1.536-2.457-2.243-3.72 1.215-1.53 2.547-2.968 4.026-4.238.285-.24.572-.48.853-.728 1.234.663 2.42 1.419 3.589 2.195.091.089.195-.002.275-.054a25.447 25.447 0 013.426-2.03c.097-.06.234-.071.296-.178-.004-.635-.08-1.268-.078-1.905-.027-.807-.004-1.615-.021-2.423A29.043 29.043 0 0123.081.426z"/><text fill="#888" dominant-baseline="text-before-edge" font-family="'Barlow','Barlow-Medium'" font-size="14" transform="translate(66 42)"><tspan style="font-kerning:normal" letter-spacing=".34">Auto Repair Services</tspan></text></svg>