<svg xmlns="http://www.w3.org/2000/svg" width="54" height="60"><path fill="#fff" d="M41.663 7.79c.303-.147.688.1.665.446.006 1.51 0 3.021.003 4.533 0 .47.267.927.676 1.147.834.498 1.67.994 2.507 1.487.392.24.907.24 1.3.002.839-.492 1.674-.991 2.51-1.489a1.33 1.33 0 00.68-1.143c.002-1.51 0-3.022.001-4.534-.039-.366.412-.62.709-.425a7.907 7.907 0 012.219 2.45 8.092 8.092 0 01.994 5.32 8.008 8.008 0 01-2.987 5.087 4.44 4.44 0 00-1.71 3.392c-.002 6.455-.002 12.91-.002 19.366-.014.538.05 1.09-.104 1.613a3.136 3.136 0 01-1.67 1.988 3.059 3.059 0 01-2.17.152c-1.253-.356-2.186-1.606-2.183-2.93-.004-6.703-.001-13.404-.003-20.105a4.4 4.4 0 00-1.192-3.007c-.328-.357-.736-.622-1.085-.956a8.007 8.007 0 01-2.101-3.305c-.41-1.181-.489-2.463-.335-3.699.301-2.153 1.511-4.164 3.278-5.39 1.768-1.227 0 0 0 0zm3.493 36.618c.133.539.722.905 1.253.758.508-.11.866-.649.784-1.169-.055-.653-.802-1.1-1.395-.847-.482.18-.789.75-.642 1.258zM33.112 11.6c1.162-.011 2.326-.002 3.488-.006.234-.025.475.178.446.427-.05.33-.145.652-.17.985-.027.197-.027.45-.224.558-.112.084-.256.058-.384.064-.946-.005-1.89 0-2.835-.002-1.823-.036-3.529.994-4.676 2.382-.509.588-.862 1.286-1.255 1.951-.94 1.635-1.875 3.272-2.824 4.902 5.405-.032 10.812-.005 16.218-.015a.618.618 0 01.67.64c0 5.904-.002 11.808 0 17.712-.004.22.012.44-.015.658a.615.615 0 01-.652.476c-3.868-.002-7.736.001-11.604-.003.8-.994 1.603-1.986 2.403-2.978.428-.512 1.058-.9 1.738-.874 2.463-.003 4.927 0 7.39-.001l.001-1.246c-2.519 0-5.038-.002-7.556 0-1.01.018-1.939.594-2.565 1.376-.997 1.24-2.009 2.47-2.996 3.72-1.038.011-2.077 0-3.115.005a6.466 6.466 0 01-4.222-1.533 6.643 6.643 0 01-2.156-3.477c-.185-.694-.212-1.42-.204-2.135v-3.79c.005-.992-.053-2 .194-2.97a7.209 7.209 0 013.437-4.644c.081-.05.174-.094.22-.186 1.479-2.564 2.946-5.134 4.43-7.693 1.447-2.397 4.01-4.18 6.818-4.303zm-9.207 14.27a.548.548 0 00.014.068c.08.29.384.426.622.57 1.05.638 2.104 1.271 3.154 1.909a6.16 6.16 0 002.98.8c3.38.005 6.762-.006 10.142.005.018-.42.009-.842.005-1.263-3.355.004-6.71.001-10.064.002a5.189 5.189 0 01-1.456-.204c-.727-.195-1.343-.65-1.986-1.026-.846-.51-1.689-1.028-2.539-1.53-.42-.239-.972.199-.872.669zm-4.196 3.525c-.219.693-.035 1.439.27 2.072.166.36.473.624.781.856.814.59 1.748.986 2.696 1.293 1.254.363 2.605.577 3.889.248.324-.099.697-.184.906-.48.206-.296.115-.685-.022-.99-.346-.75-.942-1.337-1.528-1.897-1.14-1.013-2.421-1.89-3.842-2.442-.568-.197-1.216-.387-1.796-.145-.613.296-1.157.808-1.354 1.485zm-1.522-10.089c.603-.013 1.217.12 1.737.439.484.297.884.771 1.007 1.342.153.648-.108 1.35-.59 1.79-.607.596-1.487.801-2.31.758-.88-.044-1.8.126-2.643-.207-.644-.242-1.224-.75-1.432-1.429-.186-.583-.031-1.249.354-1.716.476-.588 1.219-.904 1.955-.963.64-.027 1.281-.005 1.922-.014zm1.06 22.163c1.087 1 2.432 1.724 3.881 1.986 1.163.222 2.351.07 3.524.14.012.922.087 1.896-.316 2.753-.214.476-.614.958-1.17.967-1.516 0-3.032.004-4.548-.003-.446-.012-.802-.35-1.015-.72-.41-.7-.478-1.54-.46-2.335.01-.906-.02-1.81.013-2.713z"/><path fill="#fd6b1c" d="M23.081.426C23.782.27 24.492.156 25.193 0a64.093 64.093 0 012.075 3.864 25.499 25.499 0 014.264-.015.389.389 0 01.313.127c-3.273.31-6.496 1.236-9.42 2.77a25.94 25.94 0 00-9.588 8.628c-3.207 4.778-4.759 10.664-4.345 16.43A26.083 26.083 0 0011.24 41.86c2.673 5.339 7.21 9.686 12.614 12.082a25.065 25.065 0 007.976 2.081c-.088.141-.25.127-.392.135-1.385.115-2.78.102-4.163-.026a70.281 70.281 0 01-2.083 3.866c-1.332-.263-2.672-.504-3.973-.906-.923-.236-1.798-.621-2.703-.911-.034-1.466.009-2.93.09-4.393a25.65 25.65 0 01-3.737-2.181c-.074-.045-.17-.143-.254-.062a50.912 50.912 0 01-3.598 2.217c-1.053-.898-2.097-1.809-3.035-2.831-.656-.678-1.252-1.412-1.845-2.145.708-1.264 1.426-2.525 2.24-3.722a26.289 26.289 0 01-2.27-3.98c-1.431.112-2.868.095-4.303.097C1.288 39.787.82 38.37.5 36.914a95.936 95.936 0 01-.495-2.486l.022-.047c1.234-.734 2.48-1.452 3.77-2.08-.116-1.52-.14-3.052.01-4.57-.698-.39-1.422-.73-2.11-1.137-.572-.312-1.126-.657-1.697-.97.267-1.438.529-2.884.954-4.285.246-.854.548-1.687.851-2.52 1.432-.006 2.865-.005 4.293.105.657-1.386 1.403-2.731 2.278-3.988-.82-1.192-1.535-2.456-2.242-3.72 1.215-1.53 2.547-2.968 4.026-4.238.285-.241.572-.48.853-.728 1.234.663 2.42 1.418 3.589 2.196.091.088.195-.002.275-.056a25.584 25.584 0 013.426-2.03c.096-.06.234-.07.296-.176-.004-.635-.08-1.27-.078-1.905-.027-.808-.004-1.617-.021-2.424A29.04 29.04 0 0123.08.426z"/></svg>